<svg width="81" height="80" viewBox="0 0 81 80" fill="none" xmlns="http://www.w3.org/2000/svg">
<g clip-path="url(#clip0_1_23222)">
<path d="M11.3924 20.3268C13.4813 18.8668 16.6302 19.1468 18.5057 20.6957L16.3546 17.569C14.6235 15.1001 15.2435 12.429 17.7146 10.6957C20.1857 8.969 27.188 13.6112 27.188 13.6112C25.4413 11.1179 25.768 7.95788 28.2613 6.20899C30.7546 4.46677 34.1946 5.06899 35.9413 7.56677L59.0968 40.2779L56.1457 68.889L31.5168 59.9068L10.0346 28.0557C8.2724 25.5468 8.88129 22.0868 11.3924 20.3268Z" fill="#EF9645"/>
<path d="M6.57904 38.5245C6.57904 38.5245 4.06348 34.8579 7.73237 32.3445C11.3968 29.8312 13.9101 33.4957 13.9101 33.4957L25.579 50.5134C25.9813 49.8423 26.4213 49.1801 26.9124 48.5268L10.7168 24.9112C10.7168 24.9112 8.20348 21.2468 11.8702 18.7334C15.5346 16.2201 18.0479 19.8845 18.0479 19.8845L33.2813 42.1001C33.8479 41.6379 34.4279 41.1734 35.0257 40.7179L17.3657 14.9601C17.3657 14.9601 14.8524 11.2957 18.519 8.78232C22.1835 6.26899 24.6968 9.93343 24.6968 9.93343L42.3568 35.6868C43.0057 35.289 43.6479 34.9445 44.2924 34.5801L27.7857 10.509C27.7857 10.509 25.2724 6.84454 28.9368 4.33121C32.6013 1.81788 35.1146 5.48232 35.1146 5.48232L52.5679 30.9357L55.2213 34.8068C44.2257 42.349 43.179 56.5379 49.4613 65.7001C50.7168 67.5334 52.5501 66.2779 52.5501 66.2779C45.0102 55.2801 47.3124 42.9223 58.3102 35.3823L55.0679 19.1557C55.0679 19.1557 53.8568 14.8801 58.1301 13.6668C62.4057 12.4557 63.619 16.7312 63.619 16.7312L67.3635 27.8512C68.8479 32.2601 70.4279 36.6534 72.519 40.809C78.4235 52.5423 74.8968 67.1245 63.7635 74.7623C51.619 83.089 35.0168 79.9934 26.6879 67.8512L6.57904 38.5245Z" fill="#FFDC5D"/>
<path d="M27.2567 71.2044C18.3678 71.2044 9.38561 62.2222 9.38561 53.3333C9.38561 52.1044 8.48561 51.1111 7.25672 51.1111C6.02783 51.1111 4.94116 52.1044 4.94116 53.3333C4.94116 66.6666 13.9234 75.6489 27.2567 75.6489C28.4856 75.6489 29.4789 74.5622 29.4789 73.3333C29.4789 72.1044 28.4856 71.2044 27.2567 71.2044Z" fill="#5DADEC"/>
<path d="M16.1456 75.5555C9.47898 75.5555 5.03453 71.111 5.03453 64.4443C5.03453 63.2155 4.0412 62.2221 2.81231 62.2221C1.58342 62.2221 0.590088 63.2155 0.590088 64.4443C0.590088 73.3332 7.25675 79.9999 16.1456 79.9999C17.3745 79.9999 18.3679 79.0066 18.3679 77.7777C18.3679 76.5488 17.3745 75.5555 16.1456 75.5555ZM53.9234 4.44434C52.6968 4.44434 51.7012 5.43989 51.7012 6.66656C51.7012 7.89322 52.6968 8.88878 53.9234 8.88878C62.8123 8.88878 71.7012 16.8643 71.7012 26.6666C71.7012 27.8932 72.6968 28.8888 73.9234 28.8888C75.1501 28.8888 76.1456 27.8932 76.1456 26.6666C76.1456 14.4132 67.2568 4.44434 53.9234 4.44434Z" fill="#5DADEC"/>
<path d="M65.0345 0.0932617C63.8078 0.0932617 62.8123 0.995484 62.8123 2.22215C62.8123 3.44882 63.8078 4.53771 65.0345 4.53771C71.7011 4.53771 76.0523 9.48215 76.0523 15.5555C76.0523 16.7822 77.1389 17.7777 78.3678 17.7777C79.5967 17.7777 80.4967 16.7822 80.4967 15.5555C80.4967 7.02882 73.9234 0.0932617 65.0345 0.0932617Z" fill="#5DADEC"/>
</g>
<defs>
<clipPath id="clip0_1_23222">
<rect width="80" height="80" fill="white" transform="translate(0.590088)"/>
</clipPath>
</defs>
</svg>
