<svg width="199" height="60" viewBox="0 0 199 60" fill="none" xmlns="http://www.w3.org/2000/svg">
<g clip-path="url(#clip0_63_28763)">
<path d="M190.543 0.280762H9.41126C4.91821 0.280762 1.27588 3.9231 1.27588 8.41615V51.7568C1.27588 56.2498 4.91821 59.8922 9.41126 59.8922H190.543C195.036 59.8922 198.678 56.2498 198.678 51.7568V8.41615C198.678 3.9231 195.036 0.280762 190.543 0.280762Z" fill="black"/>
<path d="M78.2647 43.7696H76.5322L76.3349 41.5789C75.9548 42.2653 75.3333 42.8569 74.4708 43.3534C73.6081 43.85 72.5701 44.0982 71.3566 44.0982C70.0261 44.0982 68.7981 43.7988 67.6722 43.2001C66.5465 42.5867 65.6181 41.6519 64.8871 40.3959C64.1707 39.1399 63.8125 37.6721 63.8125 35.9925C63.8125 34.313 64.1926 32.8451 64.9529 31.5891C65.7131 30.3331 66.6634 29.4057 67.8038 28.8069C68.9588 28.2081 70.1943 27.9087 71.5101 27.9087C73.1768 27.9087 74.6242 28.3396 75.8524 29.2012C77.0951 30.0483 77.943 31.1802 78.3963 32.5969L76.4445 33.4294C76.0936 32.3047 75.4796 31.4358 74.6024 30.8224C73.7397 30.1943 72.7089 29.8804 71.5101 29.8804C70.0042 29.8804 68.7103 30.4135 67.6284 31.4796C66.5465 32.5458 66.0056 34.0501 66.0056 35.9925C66.0056 37.9496 66.5319 39.4685 67.5846 40.5492C68.6518 41.6154 69.9311 42.1485 71.4224 42.1485C72.2412 42.1485 72.9648 42.0171 73.5936 41.7541C74.2368 41.4912 74.734 41.148 75.0848 40.7245C75.4503 40.2864 75.7208 39.8482 75.8962 39.4101C76.0863 38.9719 76.196 38.5338 76.2252 38.0956H70.8303V36.1677H78.2647V43.7696ZM83.5204 41.2722C84.1637 41.9294 84.9458 42.258 85.8669 42.258C86.788 42.258 87.5628 41.9294 88.1916 41.2722C88.8348 40.6004 89.1565 39.673 89.1565 38.49C89.1565 37.3215 88.8348 36.4087 88.1916 35.7515C87.5628 35.0797 86.788 34.7438 85.8669 34.7438C84.9458 34.7438 84.1637 35.0797 83.5204 35.7515C82.8917 36.4087 82.5774 37.3215 82.5774 38.49C82.5774 39.673 82.8917 40.6004 83.5204 41.2722ZM81.9852 34.5028C83.0087 33.4367 84.3026 32.9036 85.8669 32.9036C87.4313 32.9036 88.7179 33.4367 89.7266 34.5028C90.7501 35.5543 91.2618 36.8834 91.2618 38.49C91.2618 40.1111 90.7574 41.4547 89.7486 42.5209C88.7398 43.5725 87.4459 44.0982 85.8669 44.0982C84.2879 44.0982 82.994 43.5725 81.9852 42.5209C80.9764 41.4547 80.472 40.1111 80.472 38.49C80.472 36.8834 80.9764 35.5543 81.9852 34.5028ZM96.0705 41.2722C96.7137 41.9294 97.4959 42.258 98.4171 42.258C99.3381 42.258 100.113 41.9294 100.742 41.2722C101.385 40.6004 101.707 39.673 101.707 38.49C101.707 37.3215 101.385 36.4087 100.742 35.7515C100.113 35.0797 99.3381 34.7438 98.4171 34.7438C97.4959 34.7438 96.7137 35.0797 96.0705 35.7515C95.4418 36.4087 95.1274 37.3215 95.1274 38.49C95.1274 39.673 95.4418 40.6004 96.0705 41.2722ZM94.5354 34.5028C95.5588 33.4367 96.8526 32.9036 98.4171 32.9036C99.9814 32.9036 101.268 33.4367 102.277 34.5028C103.301 35.5543 103.812 36.8834 103.812 38.49C103.812 40.1111 103.308 41.4547 102.299 42.5209C101.29 43.5725 99.996 44.0982 98.4171 44.0982C96.8381 44.0982 95.5442 43.5725 94.5354 42.5209C93.5265 41.4547 93.0221 40.1111 93.0221 38.49C93.0221 36.8834 93.5265 35.5543 94.5354 34.5028ZM105.682 44.3392L107.677 43.8792C107.751 44.6241 108.051 45.2375 108.576 45.7194C109.103 46.216 109.761 46.4642 110.55 46.4642C112.7 46.4642 113.774 45.325 113.774 43.0467V41.5351C113.511 42.0463 113.095 42.4625 112.524 42.7838C111.969 43.1051 111.311 43.2658 110.55 43.2658C109.147 43.2658 107.984 42.7911 107.063 41.8418C106.157 40.8778 105.704 39.651 105.704 38.1613C105.704 36.7154 106.157 35.5033 107.063 34.5247C107.97 33.5316 109.133 33.035 110.55 33.035C112.159 33.035 113.241 33.59 113.796 34.7V33.2322H115.836V42.9809C115.836 43.682 115.741 44.3319 115.55 44.9308C115.375 45.5441 115.091 46.1064 114.695 46.6175C114.301 47.1287 113.745 47.5304 113.028 47.8225C112.327 48.1145 111.501 48.2607 110.55 48.2607C109.25 48.2607 108.145 47.8882 107.239 47.1434C106.333 46.4131 105.813 45.4784 105.682 44.3392ZM110.857 41.5351C111.749 41.5351 112.473 41.2284 113.028 40.6149C113.585 39.987 113.862 39.1691 113.862 38.1613C113.862 37.1536 113.585 36.3431 113.028 35.7296C112.473 35.1016 111.749 34.7876 110.857 34.7876C109.951 34.7876 109.213 35.0943 108.642 35.7077C108.087 36.3211 107.81 37.139 107.81 38.1613C107.81 39.1983 108.08 40.0235 108.621 40.6369C109.176 41.2357 109.922 41.5351 110.857 41.5351ZM121.189 43.7696H119.128V27.9087H121.189V43.7696ZM126.034 37.4165H131.802C131.772 36.6278 131.509 35.9852 131.012 35.4886C130.514 34.9774 129.813 34.7219 128.907 34.7219C128.088 34.7219 127.415 34.9921 126.889 35.5325C126.362 36.0582 126.078 36.6863 126.034 37.4165ZM132.109 40.1549L133.884 40.7683C133.577 41.7469 133.008 42.5501 132.174 43.1781C131.341 43.7915 130.332 44.0982 129.148 44.0982C127.671 44.0982 126.414 43.5943 125.376 42.5867C124.352 41.5642 123.84 40.1914 123.84 38.468C123.84 36.8615 124.338 35.5325 125.332 34.4809C126.326 33.4294 127.51 32.9036 128.884 32.9036C130.478 32.9036 131.721 33.4074 132.613 34.4152C133.505 35.4083 133.951 36.7446 133.951 38.4242C133.951 38.6872 133.936 38.9062 133.907 39.0814H125.968C125.983 40.0162 126.289 40.7829 126.889 41.3817C127.503 41.9806 128.256 42.2799 129.148 42.2799C130.654 42.2799 131.64 41.5716 132.109 40.1549ZM144.433 35.4886H147.548C148.468 35.4886 149.199 35.2549 149.74 34.7876C150.281 34.3056 150.552 33.6631 150.552 32.8598C150.552 32.0419 150.281 31.392 149.74 30.91C149.199 30.4135 148.468 30.1651 147.548 30.1651H144.433V35.4886ZM147.942 37.4165H144.433V43.7696H142.284V28.2373H147.942C149.36 28.2373 150.515 28.6755 151.407 29.5517C152.299 30.428 152.745 31.5234 152.745 32.8378C152.745 34.1669 152.299 35.2623 151.407 36.124C150.515 36.9856 149.36 37.4165 147.942 37.4165ZM156.997 43.7696H154.936V27.9087H156.997V43.7696ZM159.847 40.9436C159.847 40.038 160.138 39.3151 160.724 38.7747C161.309 38.2198 162.084 37.8766 163.048 37.7451L165.899 37.3289C166.44 37.2558 166.711 36.993 166.711 36.5402C166.711 35.9852 166.521 35.5325 166.14 35.1819C165.76 34.8314 165.19 34.6562 164.43 34.6562C163.728 34.6562 163.173 34.8534 162.763 35.2476C162.354 35.6273 162.112 36.1385 162.039 36.7811L160.066 36.3211C160.168 35.3134 160.629 34.4955 161.447 33.8675C162.266 33.2249 163.246 32.9036 164.386 32.9036C165.877 32.9036 166.981 33.2687 167.697 33.9989C168.414 34.7146 168.772 35.6347 168.772 36.7593V42.0389C168.772 42.667 168.816 43.2439 168.904 43.7696H166.886C166.813 43.3314 166.777 42.8569 166.777 42.3456C166.484 42.813 166.053 43.2219 165.482 43.5725C164.927 43.923 164.225 44.0982 163.377 44.0982C162.339 44.0982 161.491 43.7915 160.833 43.1781C160.175 42.5501 159.847 41.8053 159.847 40.9436ZM163.662 42.3675C164.583 42.3675 165.322 42.1193 165.877 41.6227C166.433 41.1262 166.711 40.3374 166.711 39.2567V38.7747L163.487 39.2567C163.019 39.3298 162.646 39.4976 162.369 39.7606C162.091 40.0235 161.952 40.3813 161.952 40.8341C161.952 41.243 162.105 41.6007 162.412 41.9075C162.734 42.2142 163.151 42.3675 163.662 42.3675ZM174.402 48.173H172.143L174.775 42.6085L170.235 33.2322H172.604L175.894 40.5054L179.051 33.2322H181.266L174.402 48.173Z" fill="white"/>
<path opacity="0.6" d="M69.9103 19.7759V16.6963H66.9529V17.6978H68.8242C68.7574 18.1152 68.3313 18.8495 67.2369 18.8495C66.2427 18.8495 65.3655 18.1569 65.3655 16.8215C65.3655 15.4195 66.3346 14.8103 67.2286 14.8103C68.1893 14.8103 68.6823 15.4195 68.8326 15.9452L69.9354 15.553C69.6429 14.6433 68.7824 13.7336 67.2286 13.7336C65.6245 13.7336 64.1958 14.9104 64.1958 16.8215C64.1958 18.7327 65.5577 19.9011 67.1533 19.9011C68.0473 19.9011 68.6321 19.5005 68.8995 19.0999L68.9746 19.7759H69.9103ZM76.3496 19.7759V18.6909H73.7931V17.3223H76.1073V16.2958H73.7931V14.9438H76.3496V13.8588H72.6401V19.7759H76.3496ZM83.5281 14.9521V13.8588H78.6241V14.9521H80.4954V19.7759H81.6568V14.9521H83.5281ZM90.7065 19.7759V13.8588H89.5368V19.7759H90.7065ZM97.9854 14.9521V13.8588H93.0813V14.9521H94.9527V19.7759H96.1141V14.9521H97.9854ZM104.838 16.8132C104.838 15.4779 105.774 14.8436 106.684 14.8436C107.603 14.8436 108.539 15.4779 108.539 16.8132C108.539 18.1485 107.603 18.7828 106.684 18.7828C105.774 18.7828 104.838 18.1485 104.838 16.8132ZM103.643 16.8215C103.643 18.7243 105.08 19.9011 106.684 19.9011C108.297 19.9011 109.734 18.7243 109.734 16.8215C109.734 14.9104 108.297 13.7336 106.684 13.7336C105.08 13.7336 103.643 14.9104 103.643 16.8215ZM117.354 19.7759V13.8588H116.201V17.773L113.736 13.8588H112.299V19.7759H113.452V15.578L116.143 19.7759H117.354Z" fill="white"/>
<path d="M49.991 28.0917L45.122 25.2795L40.1372 30.2642L45.1216 35.2485L50.0075 32.427C50.7693 31.9641 51.224 31.1555 51.224 30.2642C51.224 29.373 50.769 28.5643 49.991 28.0917Z" fill="#FFCE00"/>
<path d="M40.1375 30.2644L26.5603 16.5894C26.088 17.0616 25.8013 17.7024 25.8013 18.4108V42.0764C25.8013 42.7848 26.088 43.4256 26.5603 43.8981L40.1375 30.2644Z" fill="url(#paint0_linear_63_28763)"/>
<path d="M40.1368 30.2643L45.1216 25.2796L45.1295 25.2717L38.4507 21.4262L29.6463 16.2518C28.8535 15.7627 27.8921 15.7458 27.0825 16.2011C26.897 16.319 26.7281 16.4372 26.5596 16.5889L40.1368 30.2643Z" fill="#00F076"/>
<path d="M26.5596 43.8975C26.7281 44.0492 26.897 44.1674 27.0825 44.2853C27.4871 44.5045 27.909 44.6227 28.3306 44.6227C28.7859 44.6227 29.2244 44.488 29.6295 44.2518L38.4502 39.1021L45.1291 35.2567L45.1212 35.2488L40.1368 30.2642L26.5596 43.8975Z" fill="#F63448"/>
</g>
<defs>
<linearGradient id="paint0_linear_63_28763" x1="19.7334" y1="37.0709" x2="33.3876" y2="23.4163" gradientUnits="userSpaceOnUse">
<stop stop-color="#00E2FF"/>
<stop offset="1" stop-color="#00C5FF"/>
</linearGradient>
<clipPath id="clip0_63_28763">
<rect width="198.3" height="59.9985" fill="white" transform="translate(0.640137 0.000732422)"/>
</clipPath>
</defs>
</svg>
