<svg width="47" height="37" viewBox="0 0 47 37" fill="none" xmlns="http://www.w3.org/2000/svg">
<path d="M4.92894 33.6995C2.39106 30.7661 0.868324 27.5661 0.868324 22.2328C0.868324 12.8995 7.21304 4.63281 16.0956 0.366146L18.3797 3.83281C10.0047 8.63281 8.2282 14.7661 7.72062 18.7661C8.98956 17.9661 10.7661 17.6995 12.5426 17.9661C17.1108 18.4995 20.6638 22.2328 20.6638 27.2995C20.6638 29.6995 19.6487 32.0995 18.126 33.9661C16.3494 35.8328 14.3191 36.6328 11.7812 36.6328C8.98956 36.6328 6.45168 35.2995 4.92894 33.6995ZM30.3078 33.6995C27.7699 30.7661 26.2472 27.5661 26.2472 22.2328C26.2472 12.8995 32.5919 4.63281 41.4745 0.366146L43.7586 3.83281C35.3836 8.63281 33.6071 14.7661 33.0995 18.7661C34.3684 17.9661 36.145 17.6995 37.9215 17.9661C42.4897 18.4995 46.0427 22.4995 46.0427 27.2995C46.0427 29.6995 45.0276 32.0995 43.5048 33.9661C41.7283 35.8328 39.698 36.6328 37.1601 36.6328C34.3684 36.6328 31.8306 35.2995 30.3078 33.6995Z" fill="#1D2939"/>
</svg>
