<svg width="186" height="60" viewBox="0 0 186 60" fill="none" xmlns="http://www.w3.org/2000/svg">
<g clip-path="url(#clip0_63_28756)">
<path d="M176.562 0.280762H8.13538C3.64234 0.280762 0 3.9231 0 8.41615V51.7568C0 56.2498 3.64234 59.8922 8.13538 59.8922H176.562C181.055 59.8922 184.698 56.2498 184.698 51.7568V8.41615C184.698 3.9231 181.055 0.280762 176.562 0.280762Z" fill="black"/>
<path d="M71.7535 43.7699L70.0654 39.4323H63.1815L61.5373 43.7699H59.2354L65.4176 28.2376H67.895L74.0773 43.7699H71.7535ZM66.6015 30.4722L63.9488 37.4387H69.2981L66.6015 30.4722ZM77.988 47.9324H75.9492V33.2324H77.9442V34.8756C78.2511 34.3205 78.7116 33.8678 79.3254 33.5173C79.9392 33.1667 80.6554 32.9915 81.4738 32.9915C82.9939 32.9915 84.1777 33.5099 85.0254 34.5469C85.8878 35.5839 86.319 36.8983 86.319 38.4902C86.319 40.0968 85.8731 41.4259 84.9816 42.4774C84.1046 43.529 82.9135 44.0547 81.4081 44.0547C80.6334 44.0547 79.9465 43.8941 79.3473 43.5727C78.7481 43.2515 78.295 42.8426 77.988 42.3459V47.9324ZM84.2142 38.4902C84.2142 37.4241 83.9293 36.5478 83.3593 35.8614C82.8039 35.1603 82.0511 34.8098 81.1011 34.8098C80.1658 34.8098 79.4058 35.1603 78.8212 35.8614C78.2511 36.5478 77.9662 37.4241 77.9662 38.4902C77.9662 39.5857 78.2511 40.4838 78.8212 41.1849C79.4058 41.8713 80.1658 42.2145 81.1011 42.2145C82.0366 42.2145 82.7892 41.8713 83.3593 41.1849C83.9293 40.4838 84.2142 39.5857 84.2142 38.4902ZM90.9837 47.9324H88.9448V33.2324H90.9399V34.8756C91.2468 34.3205 91.7071 33.8678 92.3209 33.5173C92.9349 33.1667 93.651 32.9915 94.4695 32.9915C95.9895 32.9915 97.1733 33.5099 98.021 34.5469C98.8834 35.5839 99.3145 36.8983 99.3145 38.4902C99.3145 40.0968 98.8687 41.4259 97.9772 42.4774C97.1003 43.529 95.9091 44.0547 94.4037 44.0547C93.6291 44.0547 92.9422 43.8941 92.3429 43.5727C91.7436 43.2515 91.2906 42.8426 90.9837 42.3459V47.9324ZM97.2099 38.4902C97.2099 37.4241 96.9249 36.5478 96.3549 35.8614C95.7994 35.1603 95.0468 34.8098 94.0968 34.8098C93.1614 34.8098 92.4014 35.1603 91.8168 35.8614C91.2468 36.5478 90.9617 37.4241 90.9617 38.4902C90.9617 39.5857 91.2468 40.4838 91.8168 41.1849C92.4014 41.8713 93.1614 42.2145 94.0968 42.2145C95.0322 42.2145 95.7849 41.8713 96.3549 41.1849C96.9249 40.4838 97.2099 39.5857 97.2099 38.4902ZM117.55 31.7647L115.621 32.4438C115.518 31.772 115.19 31.1658 114.634 30.6255C114.079 30.0705 113.311 29.793 112.332 29.793C111.47 29.793 110.754 30.0413 110.184 30.5379C109.614 31.0344 109.328 31.6479 109.328 32.3781C109.328 32.9477 109.497 33.4296 109.833 33.824C110.184 34.2183 110.681 34.4885 111.324 34.6346L113.648 35.1384C114.934 35.4159 115.928 35.9417 116.63 36.7158C117.331 37.4752 117.682 38.4026 117.682 39.498C117.682 40.754 117.185 41.8348 116.191 42.7403C115.197 43.6458 113.903 44.0986 112.311 44.0986C110.571 44.0986 109.204 43.6458 108.211 42.7403C107.231 41.8201 106.661 40.7321 106.5 39.476L108.561 38.8189C108.649 39.7535 109.014 40.5423 109.658 41.1849C110.301 41.8275 111.178 42.1488 112.288 42.1488C113.311 42.1488 114.101 41.9151 114.656 41.4477C115.212 40.9804 115.49 40.3889 115.49 39.6732C115.49 39.0891 115.292 38.5852 114.898 38.1617C114.503 37.7235 113.926 37.4241 113.166 37.2634L110.951 36.7815C109.796 36.5332 108.876 36.0439 108.188 35.3137C107.502 34.5834 107.158 33.656 107.158 32.5315C107.158 31.3046 107.655 30.2312 108.649 29.3111C109.658 28.3763 110.871 27.9089 112.288 27.9089C113.882 27.9089 115.102 28.296 115.949 29.0701C116.797 29.8441 117.331 30.7424 117.55 31.7647ZM122.965 29.9025V33.2324H125.245V35.0946H122.965V40.5715C122.965 41.068 123.075 41.4331 123.295 41.6668C123.527 41.9005 123.908 42.0173 124.435 42.0173C124.741 42.0173 125.011 41.9881 125.245 41.9297V43.6823C124.894 43.8137 124.426 43.8794 123.842 43.8794C122.936 43.8794 122.22 43.6165 121.694 43.0908C121.167 42.565 120.905 41.8275 120.905 40.8782V35.0946H118.887V33.2324H119.458C119.999 33.2324 120.4 33.0864 120.664 32.7943C120.941 32.4876 121.08 32.0933 121.08 31.6113V29.9025H122.965ZM130.059 41.2725C130.702 41.9297 131.484 42.2583 132.405 42.2583C133.326 42.2583 134.1 41.9297 134.729 41.2725C135.372 40.6006 135.693 39.6732 135.693 38.4902C135.693 37.3219 135.372 36.4091 134.729 35.7519C134.1 35.08 133.326 34.7441 132.405 34.7441C131.484 34.7441 130.702 35.08 130.059 35.7519C129.431 36.4091 129.116 37.3219 129.116 38.4902C129.116 39.6732 129.431 40.6006 130.059 41.2725ZM128.525 34.5031C129.548 33.4369 130.841 32.9039 132.405 32.9039C133.968 32.9039 135.255 33.4369 136.263 34.5031C137.286 35.5547 137.798 36.8837 137.798 38.4902C137.798 40.1114 137.294 41.4551 136.285 42.5212C135.277 43.5727 133.983 44.0986 132.405 44.0986C130.826 44.0986 129.532 43.5727 128.525 42.5212C127.516 41.4551 127.011 40.1114 127.011 38.4902C127.011 36.8837 127.516 35.5547 128.525 34.5031ZM146.288 33.1229V35.3137C145.981 35.2698 145.682 35.248 145.389 35.248C143.46 35.248 142.496 36.3288 142.496 38.4902V43.7699H140.435V33.2324H142.452V35.0727C143.095 33.7291 144.148 33.0572 145.609 33.0572C145.843 33.0572 146.07 33.0791 146.288 33.1229ZM149.715 37.4168H155.48C155.452 36.6281 155.188 35.9855 154.691 35.489C154.195 34.9778 153.493 34.7222 152.587 34.7222C151.768 34.7222 151.096 34.9924 150.569 35.5327C150.044 36.0586 149.759 36.6865 149.715 37.4168ZM155.787 40.1552L157.563 40.7686C157.257 41.7471 156.686 42.5504 155.853 43.1784C155.021 43.7919 154.012 44.0986 152.828 44.0986C151.352 44.0986 150.095 43.5947 149.057 42.5869C148.034 41.5646 147.523 40.1917 147.523 38.4684C147.523 36.8618 148.019 35.5327 149.014 34.4812C150.007 33.4296 151.191 32.9039 152.565 32.9039C154.158 32.9039 155.4 33.4077 156.292 34.4155C157.184 35.4086 157.629 36.745 157.629 38.4245C157.629 38.6874 157.615 38.9064 157.585 39.0818H149.649C149.663 40.0164 149.971 40.7832 150.569 41.382C151.184 41.9808 151.936 42.2802 152.828 42.2802C154.333 42.2802 155.32 41.5719 155.787 40.1552Z" fill="white"/>
<path opacity="0.6" d="M60.845 18.7076V14.9271H61.772C62.7408 14.9271 63.5426 15.5363 63.5426 16.8215C63.5426 18.1067 62.7325 18.7076 61.7637 18.7076H60.845ZM61.8053 19.7759C63.4924 19.7759 64.7368 18.6909 64.7368 16.8215C64.7368 14.9521 63.5008 13.8588 61.8138 13.8588H59.6924V19.7759H61.8053ZM67.6235 16.8132C67.6235 15.4779 68.5589 14.8436 69.4693 14.8436C70.388 14.8436 71.3233 15.4779 71.3233 16.8132C71.3233 18.1485 70.388 18.7828 69.4693 18.7828C68.5589 18.7828 67.6235 18.1485 67.6235 16.8132ZM66.4292 16.8215C66.4292 18.7243 67.8657 19.9011 69.4693 19.9011C71.0811 19.9011 72.5176 18.7243 72.5176 16.8215C72.5176 14.9104 71.0811 13.7336 69.4693 13.7336C67.8657 13.7336 66.4292 14.9104 66.4292 16.8215ZM79.9189 17.9482L78.5993 13.8588H77.4051L76.0938 17.9315L75.0082 13.8588H73.7888L75.434 19.7759H76.6367L77.9897 15.5614L79.3427 19.7759H80.5286L82.1656 13.8588H80.988L79.9189 17.9482ZM89.0418 19.7759V13.8588H87.8893V17.773L85.4255 13.8588H83.989V19.7759H85.1416V15.578L87.8308 19.7759H89.0418ZM95.2272 19.7759V18.6743H92.5881V13.8588H91.4355V19.7759H95.2272ZM97.8006 16.8132C97.8006 15.4779 98.736 14.8436 99.6464 14.8436C100.565 14.8436 101.5 15.4779 101.5 16.8132C101.5 18.1485 100.565 18.7828 99.6464 18.7828C98.736 18.7828 97.8006 18.1485 97.8006 16.8132ZM96.6063 16.8215C96.6063 18.7243 98.0428 19.9011 99.6464 19.9011C101.258 19.9011 102.695 18.7243 102.695 16.8215C102.695 14.9104 101.258 13.7336 99.6464 13.7336C98.0428 13.7336 96.6063 14.9104 96.6063 16.8215ZM108.47 19.7759H109.723L107.467 13.8588H106.131L103.859 19.7759H105.078L105.572 18.4239H107.977L108.47 19.7759ZM106.775 15.1357L107.592 17.3723H105.956L106.775 15.1357ZM112.676 18.7076V14.9271H113.602C114.571 14.9271 115.374 15.5363 115.374 16.8215C115.374 18.1067 114.563 18.7076 113.594 18.7076H112.676ZM113.636 19.7759C115.323 19.7759 116.568 18.6909 116.568 16.8215C116.568 14.9521 115.332 13.8588 113.645 13.8588H111.523V19.7759H113.636ZM122.562 16.8132C122.562 15.4779 123.498 14.8436 124.408 14.8436C125.326 14.8436 126.262 15.4779 126.262 16.8132C126.262 18.1485 125.326 18.7828 124.408 18.7828C123.498 18.7828 122.562 18.1485 122.562 16.8132ZM121.368 16.8215C121.368 18.7243 122.804 19.9011 124.408 19.9011C126.02 19.9011 127.456 18.7243 127.456 16.8215C127.456 14.9104 126.02 13.7336 124.408 13.7336C122.804 13.7336 121.368 14.9104 121.368 16.8215ZM134.552 19.7759V13.8588H133.4V17.773L130.936 13.8588H129.499V19.7759H130.652V15.578L133.341 19.7759H134.552ZM144.413 14.9521V13.8588H139.51V14.9521H141.382V19.7759H142.543V14.9521H144.413ZM151.162 19.7759V13.8588H150.002V16.2373H147.421V13.8588H146.269V19.7759H147.421V17.3223H150.002V19.7759H151.162ZM157.268 19.7759V18.6909H154.712V17.3223H157.026V16.2958H154.712V14.9438H157.268V13.8588H153.559V19.7759H157.268Z" fill="white"/>
<path d="M45.3145 37.5283C44.6365 39.0286 44.3129 39.6982 43.4399 41.0237C42.2238 42.8748 40.5077 45.1803 38.3812 45.1998C36.4924 45.2174 36.0069 43.9715 33.4427 43.9864C30.8785 44.0015 30.3441 45.2221 28.455 45.2044C26.3287 45.1855 24.704 43.1036 23.4865 41.2513C20.0831 36.0743 19.7275 29.9996 21.8265 26.7703C23.3182 24.4739 25.6723 23.1321 27.8849 23.1321C30.1379 23.1321 31.5544 24.3663 33.4179 24.3663C35.2252 24.3663 36.3259 23.1301 38.9313 23.1301C40.9006 23.1301 42.9871 24.2014 44.4741 26.0524C39.6021 28.7197 40.3942 35.6695 45.3145 37.5283Z" fill="white"/>
<path d="M37.228 19.8904C38.1746 18.6763 38.8924 16.9636 38.6313 15.2117C37.085 15.3173 35.2776 16.3005 34.2219 17.5817C33.2635 18.7443 32.4719 20.4688 32.7799 22.1449C34.4666 22.1979 36.2133 21.1905 37.228 19.8904Z" fill="white"/>
</g>
<defs>
<clipPath id="clip0_63_28756">
<rect width="185.08" height="59.9985" fill="white" transform="translate(0 0.000732422)"/>
</clipPath>
</defs>
</svg>
